<svg id="Layer_1" data-name="Layer 1" xmlns="http://www.w3.org/2000/svg" viewBox="0 0 853 821.96"><defs><style>.cls-1{fill:#d83535;}</style></defs><title>mini-hack-logo</title><path class="cls-1" d="M733,72" transform="translate(-113 -114)"/><path class="cls-1" d="M539.5,114C304,114,113,305,113,540.5c0,179,110.22,332.17,266.49,395.46,7.86-12.72,13.16-29.86,8.25-51.24-11.8-51.4-25.56-70.1-27.52-71.27-1.62-1-7.86,35.06-4.08,60.28,2.43,9.36,4.08,14.5,4.08,14.5a51,51,0,0,1-4.08-14.5,642.46,642.46,0,0,1-17.55-105.84S314,709.47,313,676.76c0,0-5.9-9.35-23.59,65.42,0,0-12.78-11.68,14.74-102.81,0,0-2.94-40.89,1-83,0,0-26.54,40.89-40.31,64.26,0,0,8.85-66.6,61.93-119.17,0,0,6.88-35.05,41.29-75.94,0,0-59,15.19-60.95,22.2,0,0-5.89-18.7,106.17-58.42,0,0,38.34,1.17,39.32,49.07,0,0,82.57,100.47,118.94-64.26,0,0-6.88-19.86-8.84-19.86s6.88-11.69,15.73,0c0,0-36.65-63.16-53.34-73.83l-1.71-1a15.08,15.08,0,0,1,1.71,1C541.79,289.7,675.78,364.69,720,415.05V377.66s27.52,93.47,48.17,105.16c0,0,5.9-21,10.81-21,0,0,15.73,79.45,45.22,95.81a170,170,0,0,1,18.68-14s-4.92,45.56,6.88,45.56c0,0,24.57-28,56-98.14,0,0,18.68,99.31-42.27,261.71a183.51,183.51,0,0,0-11.14-28.55c-7.13,7-14.42,7.52-14.42,7.52,5.24-7.47,6.57-15.93,6.67-22.21-1.31-2.25-2.69-4.54-4.16-6.85-8.18,13.6-17.25,15-17.25,15,4.17-5.78,6.37-20.9,7.3-29.27q-1.75-2.26-3.61-4.52A161.31,161.31,0,0,1,801.59,706c5.29-7.44,8.7-23.27,10.8-37.49q-3.15-2.91-6.54-5.67c-12.86,18.4-32.77,25.63-32.77,25.63,6.2-8.59,9.68-25.56,11.59-39.74-3.34-1.78-6.82-3.43-10.42-4.92-9.17,27.43-31.64,33-31.64,33,9.07-13.1,10.45-29.74,10.34-39.57-2.16-.45-4.35-.88-6.59-1.23C741.11,657.53,720,662.74,720,662.74c5.36-5.58,5.7-19.83,5.37-28.34-2,0-4.12.06-6.22.16-7,14.15-17.83,20-17.83,20,1-2.36,1-10.64.73-18.29-1.54.24-3.09.48-4.66.76,0,0-34.4-11.68-47.18-32.71,0,0-41.29-7-71.76,9.35-27.09,14.54,52.1,7,52.1,7s22.26-7.22,73.48,57.39l8.11-4.82-3.24,11.06q5.77,7.53,12,16.27c6.18-3.29,15.15-8.28,15.79-9.8,0,0-1.09,12.87-6.07,23.8q3.93,5.8,8,12.06c6.89-2,16.71-6.63,22.63-17.17a70,70,0,0,1-8.15,30,76,76,0,0,0,10,4.5c8-6.39,20.44-16.91,21.76-21.63a62.26,62.26,0,0,1-2.38,26.77c3.09.55,6.39,1,9.92,1.45,5.56-4.63,18.08-15.34,19-18.55a1.25,1.25,0,0,0,0-.32l0,.32a127.71,127.71,0,0,1-5,19.63c7.14.31,15,.31,23.7-.09,0,0-29.49,46.74-119.93,32.71,0,0,3-61.92-60-100.47,0,0-72.75-36.22-71.76-21s-1,50.24,27.52,63.09l-5.9,12.85s48.17,64.26,86.51,87.62c0,0,2,14-5.9,15.19-6.43,1,31.81,26.91,48.67,81C869.62,852.67,966,707.84,966,540.5,966,305,775.05,114,539.5,114Zm10.44,243.8c15.73,33.88-28.51,106.32-55.05,94.64s-31.46-42.06-36.37-50.24c-21-35-78.6-31.43-99.16-29.15a39.21,39.21,0,0,1-18-2.25C255.31,339.08,259,262,259,262c53.08,68.93,117,46.73,134.67,42.06C510.19,273.28,549.94,357.8,549.94,357.8Z" transform="translate(-113 -114)"/><path class="cls-1" d="M693.77,531.18l59.58,23.88L595.83,402.32l86.4,119.61A26.6,26.6,0,0,0,693.77,531.18Z" transform="translate(-113 -114)"/></svg>